<svg width="26" height="26" viewBox="0 0 26 26" fill="none" xmlns="http://www.w3.org/2000/svg">
<path d="M15.4512 19.6125L13.8387 21.2375V14.25C13.8387 13.9185 13.707 13.6005 13.4726 13.3661C13.2381 13.1317 12.9202 13 12.5887 13C12.2571 13 11.9392 13.1317 11.7048 13.3661C11.4704 13.6005 11.3387 13.9185 11.3387 14.25V21.2375L9.72617 19.6125C9.60962 19.4959 9.47126 19.4035 9.31898 19.3404C9.1667 19.2773 9.00349 19.2449 8.83867 19.2449C8.67385 19.2449 8.51064 19.2773 8.35836 19.3404C8.20608 19.4035 8.06772 19.4959 7.95117 19.6125C7.83462 19.729 7.74217 19.8674 7.67909 20.0197C7.61602 20.172 7.58356 20.3352 7.58356 20.5C7.58356 20.6648 7.61602 20.828 7.67909 20.9803C7.74217 21.1326 7.83462 21.2709 7.95117 21.3875L11.7012 25.1375C11.8201 25.2513 11.9602 25.3405 12.1137 25.4C12.2633 25.4661 12.4251 25.5003 12.5887 25.5003C12.7523 25.5003 12.914 25.4661 13.0637 25.4C13.2171 25.3405 13.3573 25.2513 13.4762 25.1375L17.2262 21.3875C17.4615 21.1521 17.5938 20.8329 17.5938 20.5C17.5938 20.1671 17.4615 19.8479 17.2262 19.6125C16.9908 19.3771 16.6715 19.2449 16.3387 19.2449C16.0058 19.2449 15.6866 19.3771 15.4512 19.6125ZM20.6137 5.77499C19.8499 4.02 18.5318 2.56384 16.8613 1.62965C15.1907 0.695462 13.26 0.334781 11.3649 0.602877C9.46976 0.870974 7.71483 1.75306 6.36899 3.11396C5.02315 4.47486 4.16066 6.23951 3.91367 8.13749C2.7219 8.42289 1.67645 9.13603 0.975841 10.1415C0.275236 11.1469 -0.0317259 12.3747 0.113249 13.5915C0.258223 14.8084 0.845037 15.9296 1.76225 16.7423C2.67947 17.555 3.86321 18.0026 5.08867 18C5.42019 18 5.73813 17.8683 5.97255 17.6339C6.20697 17.3995 6.33867 17.0815 6.33867 16.75C6.33867 16.4185 6.20697 16.1005 5.97255 15.8661C5.73813 15.6317 5.42019 15.5 5.08867 15.5C4.42563 15.5 3.78974 15.2366 3.3209 14.7678C2.85206 14.2989 2.58867 13.663 2.58867 13C2.58867 12.3369 2.85206 11.7011 3.3209 11.2322C3.78974 10.7634 4.42563 10.5 5.08867 10.5C5.42019 10.5 5.73813 10.3683 5.97255 10.1339C6.20697 9.89945 6.33867 9.58151 6.33867 9.24999C6.34186 7.77159 6.86903 6.34218 7.82651 5.21572C8.78399 4.08926 10.1098 3.33868 11.5684 3.09733C13.0269 2.85599 14.5238 3.1395 15.7931 3.8975C17.0624 4.6555 18.0219 5.83891 18.5012 7.23749C18.5726 7.45229 18.7011 7.64365 18.8728 7.79116C19.0445 7.93866 19.2531 8.03676 19.4762 8.07499C20.3088 8.23233 21.0635 8.66699 21.6175 9.30816C22.1714 9.94932 22.4919 10.7592 22.5267 11.6058C22.5615 12.4524 22.3085 13.2858 21.809 13.9703C21.3096 14.6547 20.593 15.1499 19.7762 15.375C19.6169 15.416 19.4674 15.488 19.336 15.5869C19.2046 15.6857 19.0939 15.8095 19.0103 15.9511C18.9268 16.0927 18.8719 16.2494 18.8489 16.4122C18.8259 16.575 18.8351 16.7408 18.8762 16.9C18.9172 17.0592 18.9892 17.2088 19.0881 17.3402C19.1869 17.4716 19.3107 17.5823 19.4523 17.6658C19.5939 17.7494 19.7506 17.8043 19.9134 17.8273C20.0762 17.8503 20.2419 17.841 20.4012 17.8C21.7167 17.4524 22.8828 16.685 23.7224 15.6143C24.5621 14.5437 25.0294 13.2283 25.0535 11.8678C25.0775 10.5074 24.6569 9.17629 23.8556 8.07664C23.0543 6.97699 21.9161 6.16886 20.6137 5.77499Z" fill="white"/>
</svg>
