<svg width="13" height="13" viewBox="0 0 13 13" fill="none" xmlns="http://www.w3.org/2000/svg">
<path d="M12.5039 0.62C12.4024 0.375651 12.2083 0.181475 11.9639 0.0799999C11.8437 0.028759 11.7146 0.00157999 11.5839 0H1.58392C1.31871 0 1.06435 0.105357 0.876817 0.292893C0.68928 0.48043 0.583923 0.734784 0.583923 1C0.583923 1.26522 0.68928 1.51957 0.876817 1.70711C1.06435 1.89464 1.31871 2 1.58392 2H9.17392L0.873923 10.29C0.780195 10.383 0.705801 10.4936 0.655032 10.6154C0.604263 10.7373 0.578125 10.868 0.578125 11C0.578125 11.132 0.604263 11.2627 0.655032 11.3846C0.705801 11.5064 0.780195 11.617 0.873923 11.71C0.966886 11.8037 1.07749 11.8781 1.19935 11.9289C1.32121 11.9797 1.45191 12.0058 1.58392 12.0058C1.71594 12.0058 1.84664 11.9797 1.9685 11.9289C2.09036 11.8781 2.20096 11.8037 2.29392 11.71L10.5839 3.41V11C10.5839 11.2652 10.6893 11.5196 10.8768 11.7071C11.0644 11.8946 11.3187 12 11.5839 12C11.8491 12 12.1035 11.8946 12.291 11.7071C12.4786 11.5196 12.5839 11.2652 12.5839 11V1C12.5823 0.869323 12.5552 0.740222 12.5039 0.62Z" fill="white"/>
</svg>
