<svg width="29" height="23" viewBox="0 0 29 23" fill="none" xmlns="http://www.w3.org/2000/svg">
<path d="M24.2865 2.3652C22.4579 1.52493 20.4971 0.905859 18.4469 0.551292C18.4096 0.544449 18.3723 0.56155 18.353 0.595753C18.1009 1.04495 17.8215 1.63095 17.6259 2.09155C15.4208 1.76094 13.227 1.76094 11.0672 2.09155C10.8715 1.62072 10.582 1.04495 10.3287 0.595753C10.3095 0.562691 10.2722 0.54559 10.2349 0.551292C8.18582 0.904726 6.22499 1.5238 4.39532 2.3652C4.37948 2.37203 4.3659 2.38345 4.35689 2.39826C0.637603 7.96309 -0.381265 13.3911 0.118557 18.7519C0.120819 18.7781 0.13552 18.8032 0.155875 18.8192C2.60975 20.6239 4.98675 21.7196 7.31962 22.4458C7.35695 22.4572 7.39651 22.4435 7.42027 22.4128C7.97211 21.658 8.46402 20.8622 8.88579 20.0254C8.91068 19.9764 8.88692 19.9182 8.83605 19.8988C8.05579 19.6024 7.31283 19.241 6.59815 18.8306C6.54162 18.7975 6.53709 18.7165 6.5891 18.6778C6.73949 18.5649 6.88993 18.4475 7.03353 18.3289C7.05952 18.3073 7.09572 18.3027 7.12627 18.3164C11.8214 20.4632 16.9045 20.4632 21.5442 18.3164C21.5747 18.3015 21.6109 18.3061 21.6381 18.3278C21.7817 18.4463 21.9321 18.5649 22.0836 18.6778C22.1356 18.7165 22.1322 18.7975 22.0757 18.8306C21.361 19.249 20.6181 19.6024 19.8367 19.8977C19.7858 19.9171 19.7632 19.9764 19.7881 20.0254C20.2189 20.8611 20.7108 21.6569 21.2525 22.4116C21.2751 22.4435 21.3158 22.4572 21.3531 22.4458C23.6973 21.7196 26.0743 20.6239 28.5281 18.8192C28.5496 18.8032 28.5632 18.7793 28.5655 18.753C29.1637 12.5554 27.5635 7.17187 24.3237 2.39939C24.3158 2.38345 24.3023 2.37203 24.2865 2.3652ZM9.58694 15.4878C8.17338 15.4878 7.00864 14.1881 7.00864 12.5919C7.00864 10.9958 8.15079 9.69607 9.58694 9.69607C11.0344 9.69607 12.1878 11.0072 12.1652 12.5919C12.1652 14.1881 11.023 15.4878 9.58694 15.4878ZM19.1197 15.4878C17.7062 15.4878 16.5415 14.1881 16.5415 12.5919C16.5415 10.9958 17.6836 9.69607 19.1197 9.69607C20.5672 9.69607 21.7206 11.0072 21.698 12.5919C21.698 14.1881 20.5672 15.4878 19.1197 15.4878Z" fill="#232323"/>
</svg>
