<svg width="26" height="26" viewBox="0 0 26 26" fill="none" xmlns="http://www.w3.org/2000/svg">
<path d="M13 0.808594C10.0319 0.808717 7.16061 1.86499 4.89999 3.7884C2.63937 5.71182 1.13691 8.37687 0.661451 11.3067C0.185991 14.2365 0.768556 17.2399 2.30491 19.7795C3.84126 22.3191 6.23114 24.2292 9.04693 25.168C9.67193 25.2774 9.90631 24.9024 9.90631 24.5742C9.90631 24.2773 9.89067 23.293 9.89067 22.2461C6.75003 22.8242 5.93753 21.4805 5.68753 20.7774C5.41013 20.0935 4.97038 19.4875 4.40628 19.0117C3.96878 18.7773 3.34378 18.1992 4.39065 18.1836C4.79038 18.227 5.17377 18.3661 5.50832 18.5891C5.84288 18.8121 6.11874 19.1125 6.31253 19.4648C6.4835 19.772 6.71338 20.0423 6.98902 20.2605C7.26466 20.4786 7.58063 20.6402 7.91882 20.736C8.25702 20.8318 8.6108 20.8599 8.95988 20.8187C9.30897 20.7776 9.6465 20.6679 9.95313 20.4961C10.0072 19.8606 10.2905 19.2665 10.75 18.8243C7.96878 18.5118 5.06253 17.4336 5.06253 12.6524C5.04497 11.4101 5.50339 10.2081 6.34378 9.29301C5.96164 8.21328 6.00635 7.02836 6.46878 5.98051C6.46878 5.98051 7.51562 5.65237 9.90628 7.26176C11.9516 6.69922 14.1109 6.69922 16.1563 7.26176C18.5469 5.63676 19.5938 5.98051 19.5938 5.98051C20.0563 7.02835 20.101 8.21329 19.7188 9.29301C20.5617 10.2065 21.0205 11.4095 21 12.6524C21 17.4492 18.0781 18.5118 15.2969 18.8243C15.5952 19.1266 15.825 19.4896 15.9706 19.8886C16.1161 20.2877 16.1742 20.7133 16.1407 21.1368C16.1407 22.8087 16.125 24.1524 16.125 24.5743C16.125 24.9024 16.3594 25.293 16.9844 25.168C19.7952 24.2216 22.1782 22.3071 23.708 19.7662C25.2379 17.2253 25.8149 14.2234 25.3361 11.2964C24.8574 8.3694 23.354 5.70781 21.0944 3.78673C18.8347 1.86566 15.9659 0.810137 13 0.808594Z" fill="#232323"/>
</svg>
