<svg width="26" height="26" viewBox="0 0 26 26" fill="none" xmlns="http://www.w3.org/2000/svg">
<path d="M12.586 0.80835C9.61782 0.808473 6.74655 1.86474 4.48593 3.78816C2.22531 5.71158 0.722848 8.37663 0.247388 11.3065C-0.228072 14.2363 0.354494 17.2397 1.89085 19.7793C3.4272 22.3189 5.81708 24.229 8.63287 25.1677C9.25787 25.2771 9.49225 24.9021 9.49225 24.574C9.49225 24.2771 9.47661 23.2927 9.47661 22.2458C6.33597 22.824 5.52347 21.4803 5.27347 20.7771C4.99607 20.0933 4.55632 19.4873 3.99222 19.0115C3.55472 18.7771 2.92972 18.199 3.97658 18.1834C4.37632 18.2268 4.75971 18.3658 5.09426 18.5889C5.42881 18.8119 5.70468 19.1123 5.89847 19.4646C6.06944 19.7717 6.29932 20.0421 6.57496 20.2602C6.8506 20.4783 7.16657 20.6399 7.50476 20.7357C7.84296 20.8315 8.19674 20.8596 8.54582 20.8185C8.8949 20.7773 9.23244 20.6677 9.53907 20.4958C9.59319 19.8604 9.8764 19.2662 10.336 18.824C7.55472 18.5115 4.64847 17.4333 4.64847 12.6521C4.63091 11.4098 5.08933 10.2079 5.92972 9.29276C5.54757 8.21304 5.59229 7.02812 6.05472 5.98026C6.05472 5.98026 7.10156 5.65212 9.49222 7.26151C11.5376 6.69898 13.6969 6.69898 15.7422 7.26151C18.1328 5.63651 19.1797 5.98026 19.1797 5.98026C19.6422 7.0281 19.6869 8.21305 19.3047 9.29276C20.1476 10.2063 20.6065 11.4093 20.586 12.6521C20.586 17.449 17.6641 18.5115 14.8828 18.824C15.1812 19.1264 15.4109 19.4894 15.5565 19.8884C15.7021 20.2874 15.7601 20.7131 15.7266 21.1365C15.7266 22.8084 15.711 24.1521 15.711 24.574C15.711 24.9021 15.9453 25.2928 16.5703 25.1678C19.3812 24.2213 21.7642 22.3068 23.294 19.7659C24.8238 17.225 25.4008 14.2231 24.9221 11.2961C24.4433 8.36916 22.9399 5.70756 20.6803 3.78649C18.4207 1.86541 15.5519 0.809893 12.586 0.80835Z" fill="white"/>
</svg>
