<svg width="30" height="24" viewBox="0 0 30 24" fill="none" xmlns="http://www.w3.org/2000/svg">
<path d="M25.3963 2.44791C23.4842 1.56925 21.4337 0.921886 19.2899 0.551116C19.2508 0.54396 19.2118 0.561843 19.1917 0.597609C18.928 1.06733 18.6359 1.68012 18.4314 2.16176C16.1255 1.81604 13.8315 1.81604 11.5729 2.16176C11.3683 1.66941 11.0656 1.06733 10.8007 0.597609C10.7806 0.563036 10.7416 0.545153 10.7026 0.551116C8.55989 0.920701 6.50945 1.56806 4.59617 2.44791C4.57961 2.45506 4.56541 2.46699 4.55599 2.48248C0.666739 8.30161 -0.398688 13.9777 0.123975 19.5834C0.12634 19.6109 0.141712 19.6371 0.162998 19.6538C2.72901 21.541 5.21463 22.6867 7.6541 23.4462C7.69314 23.4581 7.73451 23.4438 7.75935 23.4116C8.33641 22.6224 8.8508 21.7902 9.29185 20.9151C9.31787 20.8639 9.29303 20.8031 9.23983 20.7828C8.42392 20.4728 7.647 20.0949 6.89966 19.6657C6.84055 19.6311 6.83582 19.5465 6.8902 19.5059C7.04747 19.3879 7.20477 19.2651 7.35494 19.1411C7.38211 19.1185 7.41997 19.1137 7.45192 19.128C12.3616 21.3729 17.6769 21.3729 22.5287 19.128C22.5606 19.1125 22.5985 19.1173 22.6268 19.1399C22.7771 19.2639 22.9343 19.3879 23.0928 19.5059C23.1472 19.5465 23.1436 19.6311 23.0845 19.6657C22.3372 20.1032 21.5602 20.4728 20.7431 20.7816C20.6899 20.8019 20.6663 20.8639 20.6923 20.9151C21.1428 21.789 21.6572 22.6211 22.2236 23.4104C22.2473 23.4438 22.2898 23.4581 22.3289 23.4462C24.7802 22.6867 27.2658 21.541 29.8318 19.6538C29.8543 19.6371 29.8685 19.6121 29.8708 19.5846C30.4964 13.1038 28.8231 7.47424 25.4353 2.48367C25.427 2.46699 25.4128 2.45506 25.3963 2.44791ZM10.025 16.1701C8.54687 16.1701 7.32892 14.8111 7.32892 13.142C7.32892 11.4729 8.52325 10.1138 10.025 10.1138C11.5386 10.1138 12.7448 11.4848 12.7211 13.142C12.7211 14.8111 11.5268 16.1701 10.025 16.1701ZM19.9934 16.1701C18.5153 16.1701 17.2974 14.8111 17.2974 13.142C17.2974 11.4729 18.4917 10.1138 19.9934 10.1138C21.507 10.1138 22.7132 11.4848 22.6896 13.142C22.6896 14.8111 21.507 16.1701 19.9934 16.1701Z" fill="#232323"/>
</svg>
