<svg width="26" height="26" viewBox="0 0 26 26" fill="none" xmlns="http://www.w3.org/2000/svg">
<path d="M13 0.80835C10.0318 0.808473 7.16058 1.86474 4.89996 3.78816C2.63934 5.71158 1.13688 8.37663 0.66142 11.3065C0.18596 14.2363 0.768526 17.2397 2.30488 19.7793C3.84123 22.3189 6.23111 24.229 9.0469 25.1677C9.6719 25.2771 9.90628 24.9021 9.90628 24.574C9.90628 24.2771 9.89064 23.2927 9.89064 22.2458C6.75 22.824 5.9375 21.4803 5.6875 20.7771C5.4101 20.0933 4.97035 19.4873 4.40625 19.0115C3.96875 18.7771 3.34375 18.199 4.39062 18.1834C4.79035 18.2268 5.17374 18.3658 5.50829 18.5889C5.84285 18.8119 6.11871 19.1123 6.3125 19.4646C6.48347 19.7717 6.71335 20.0421 6.98899 20.2602C7.26463 20.4783 7.5806 20.6399 7.91879 20.7357C8.25699 20.8315 8.61077 20.8596 8.95985 20.8185C9.30894 20.7773 9.64647 20.6677 9.9531 20.4958C10.0072 19.8604 10.2904 19.2662 10.75 18.824C7.96875 18.5115 5.0625 17.4333 5.0625 12.6521C5.04494 11.4098 5.50336 10.2079 6.34375 9.29276C5.96161 8.21304 6.00632 7.02812 6.46875 5.98026C6.46875 5.98026 7.51559 5.65212 9.90625 7.26151C11.9516 6.69898 14.1109 6.69898 16.1563 7.26151C18.5469 5.63651 19.5938 5.98026 19.5938 5.98026C20.0562 7.0281 20.101 8.21305 19.7188 9.29276C20.5617 10.2063 21.0205 11.4093 21 12.6521C21 17.449 18.0781 18.5115 15.2969 18.824C15.5952 19.1264 15.8249 19.4894 15.9705 19.8884C16.1161 20.2874 16.1741 20.7131 16.1406 21.1365C16.1406 22.8084 16.125 24.1521 16.125 24.574C16.125 24.9021 16.3594 25.2928 16.9844 25.1678C19.7952 24.2213 22.1782 22.3068 23.708 19.7659C25.2378 17.225 25.8149 14.2231 25.3361 11.2961C24.8573 8.36916 23.354 5.70756 21.0943 3.78649C18.8347 1.86541 15.9659 0.809893 13 0.80835Z" fill="black"/>
</svg>
